<svg width="69" height="23" viewBox="0 0 69 23" fill="none" xmlns="http://www.w3.org/2000/svg">
<g clip-path="url(#clip0_73_413)">
<path d="M0.5 0.5H15.2156V7.78567H7.8578L0.5 0.5ZM0.5 7.78567H7.8578L15.2156 15.0713H0.5V7.78567ZM0.5 15.0713H7.8578V22.357L0.5 15.0713Z" fill="white"/>
<path d="M23.5186 6.24768H29.4669V8.11935H25.77V10.7203H29.4669V12.5507H25.77V15.881H23.5186V6.24768ZM30.6899 9.24768H32.8164V10.6377C32.9275 10.16 33.1547 9.79335 33.4974 9.53668C33.8488 9.27035 34.239 9.13768 34.6648 9.13768C34.8873 9.13768 35.0728 9.15635 35.2206 9.19268V11.147C35.0085 11.1217 34.7951 11.108 34.5813 11.1057C33.9976 11.1057 33.558 11.2933 33.2611 11.6697C32.9652 12.0367 32.8164 12.587 32.8164 13.3213V15.881H30.6909V9.24768H30.6899ZM38.5775 16.06C37.9292 16.06 37.3636 15.9083 36.8819 15.6057C36.4093 15.303 36.0336 14.8733 35.7979 14.367C35.5478 13.8353 35.4219 13.2337 35.4219 12.5643C35.4219 11.9037 35.5525 11.307 35.8117 10.7753C36.0548 10.2617 36.4406 9.82735 36.9236 9.52301C37.4141 9.22035 37.975 9.06868 38.6055 9.06868C39.0778 9.06868 39.4999 9.17001 39.8702 9.37168C40.2405 9.57401 40.5186 9.84935 40.704 10.1973V9.24768H42.8164V15.881H40.704V14.945C40.5186 15.2753 40.2314 15.5457 39.8423 15.757C39.4531 15.9613 39.0182 16.0653 38.5775 16.06ZM39.1892 14.312C39.6985 14.312 40.0924 14.147 40.3704 13.8167C40.6485 13.4863 40.7875 13.0687 40.7875 12.5643C40.7875 12.069 40.6485 11.656 40.3704 11.3257C40.0924 10.9953 39.6985 10.8303 39.1892 10.8303C38.7068 10.8303 38.3183 10.9907 38.0217 11.312C37.7346 11.6333 37.5909 12.0503 37.5909 12.5643C37.5909 13.0783 37.7346 13.5 38.0217 13.8303C38.3183 14.1517 38.7075 14.312 39.1892 14.312ZM44.3037 9.24768H46.4302V10.211C46.579 9.87101 46.8193 9.59568 47.1526 9.38535C47.496 9.17501 47.8942 9.06868 48.348 9.06868C49.4043 9.06868 50.1042 9.47668 50.4466 10.2937C50.6351 9.92335 50.93 9.61701 51.2945 9.41301C51.6844 9.18068 52.1321 9.06168 52.5869 9.06868C54.1714 9.06868 54.9635 9.96735 54.9635 11.766V15.881H52.8232V12.1513C52.8232 11.7023 52.7397 11.372 52.5731 11.1607C52.4061 10.95 52.156 10.844 51.8224 10.844C51.4612 10.844 51.1831 10.968 50.9885 11.2157C50.794 11.4543 50.6967 11.8713 50.6967 12.468V15.881H48.5564V12.1377C48.5564 11.6883 48.4732 11.3623 48.3062 11.1607C48.1494 10.95 47.9033 10.844 47.5704 10.844C47.1994 10.844 46.9166 10.968 46.722 11.2157C46.5275 11.4543 46.4302 11.8713 46.4302 12.468V15.881H44.3043V9.24768H44.3037ZM62.9518 12.2203C62.9518 12.5043 62.933 12.812 62.8953 13.1423H57.9484C57.9673 13.5737 58.1151 13.9033 58.3931 14.1333C58.6712 14.3623 59.0472 14.4773 59.5188 14.4773C60.177 14.4773 60.594 14.2797 60.7698 13.8853H62.8545C62.7522 14.537 62.391 15.064 61.7702 15.468C61.1589 15.8623 60.4082 16.06 59.5188 16.06C58.3702 16.06 57.4667 15.7523 56.8086 15.1377C56.1602 14.5227 55.8357 13.6653 55.8357 12.5643C55.8357 11.8487 55.9838 11.2293 56.2804 10.7063C56.5669 10.184 57.0086 9.76135 57.5452 9.49535C58.0922 9.21135 58.7267 9.06868 59.4502 9.06868C60.1352 9.06868 60.7418 9.20168 61.27 9.46801C61.8073 9.73435 62.22 10.1057 62.5068 10.5827C62.8037 11.0603 62.9518 11.606 62.9518 12.2203ZM60.8522 11.835C60.8432 11.3947 60.7183 11.0593 60.4769 10.8303C60.2365 10.6013 59.8885 10.4863 59.4347 10.4863C58.9809 10.4863 58.6197 10.61 58.3507 10.858C58.0915 11.0967 57.9572 11.422 57.9474 11.835H60.8522ZM63.8894 9.24768H66.0159V10.6377C66.127 10.16 66.3542 9.79335 66.6969 9.53668C67.0295 9.27735 67.4408 9.13668 67.8643 9.13768C68.0865 9.13768 68.2723 9.15635 68.4201 9.19268V11.147C68.208 11.1217 67.9946 11.108 67.7808 11.1057C67.1971 11.1057 66.7575 11.2933 66.4606 11.6697C66.1637 12.0367 66.0159 12.587 66.0159 13.3213V15.881H63.8894V9.24768Z" fill="white"/>
</g>
<defs>
<clipPath id="clip0_73_413">
<rect width="68" height="22" fill="white" transform="translate(0.5 0.5)"/>
</clipPath>
</defs>
</svg>
